# xmcd
#
# Track frame offsets:
#	150
#	9264
#	19018
#	27695
#	40052
#	46975
#	57903
#	63665
#	74178
#	81425
#	87110
#	95800
#	104033
#	121761
#	132519
#	143065
#	150312
#	158430
#
# Disc length: 2229 seconds
#
# Revision: 0
# Processed by: cddbd v1.4PL0 Copyright (c) Steve Scherf et al.
# Submitted via: EasyCDDAExtractor 4.6.9.1
#
DISCID=f408b312
DTITLE=Buck Owens and The Bucharoos - Country Songs
DYEAR=1900
DGENRE=Country
TTITLE0=Dang Me
TTITLE1=I Don't Care
TTITLE2=Buck's Polka
TTITLE3=The House Down The Block
TTITLE4=You're For Me
TTITLE5=Down On The Corner Of Love
TTITLE6=Blue Love
TTITLE7=It Don't Show On Me
TTITLE8=Please Don't Take Her Love From Me
TTITLE9=Three Dimensionnal Lover
TTITLE10=Why Don't Mommy Stay With Dad And Me
TTITLE11=Honeysuckle
TTITLE12=Country Girl
TTITLE13=I'll Love You
TTITLE14=Right After The Dabce
TTITLE15=I'm Gonna Blow This Town
TTITLE16=When I Hold You
TTITLE17=Higher And Higher And Higher
EXTD=
EXTT0=
EXTT1=
EXTT2=
EXTT3=
EXTT4=
EXTT5=
EXTT6=
EXTT7=
EXTT8=
EXTT9=
EXTT10=
EXTT11=
EXTT12=
EXTT13=
EXTT14=
EXTT15=
EXTT16=
EXTT17=
PLAYORDER=
